<svg xmlns="http://www.w3.org/2000/svg" xmlns:xlink="http://www.w3.org/1999/xlink" xmlns:xodm="http://www.corel.com/coreldraw/odm/2003" xml:space="preserve" version="1.1" style="shape-rendering:geometricPrecision;text-rendering:geometricPrecision;image-rendering:optimizeQuality;" viewBox="0 0 60000 75000" x="0px" y="0px" fill-rule="evenodd" clip-rule="evenodd"><defs><style type="text/css">
   
    .fil0 {fill:black;fill-rule:nonzero}
   
  </style></defs><g><path class="fil0" d="M6551.97 40799.54c-213.14,55.22 -430.72,-72.8 -485.94,-285.94 -55.22,-213.14 72.8,-430.72 285.94,-485.94l2222.5 -582.08c213.14,-55.22 430.72,72.8 485.94,285.94 55.22,213.14 -72.8,430.72 -285.94,485.94l-2222.5 582.08zm10218.67 -23974.69c67.95,119.73 25.98,271.9 -93.75,339.85 -119.73,67.95 -271.9,25.98 -339.85,-93.75l-3144.31 -5542.64c-67.95,-119.73 -25.98,-271.9 93.75,-339.85 119.73,-67.95 271.9,-25.98 339.85,93.75l3144.31 5542.64zm-1866.51 2683.69c137.52,0.54 248.58,112.48 248.04,250 -0.54,137.52 -112.48,248.58 -250,248.04l-6372.2 -48.28c-137.52,-0.54 -248.58,-112.48 -248.04,-250 0.54,-137.52 112.48,-248.58 250,-248.04l6372.2 48.28zm1392.08 2957.41c69.57,-118.65 222.17,-158.43 340.82,-88.86 118.65,69.57 158.43,222.17 88.86,340.82l-3227.89 5494.36c-69.57,118.65 -222.17,158.43 -340.82,88.86 -118.65,-69.57 -158.43,-222.17 -88.86,-340.82l3227.89 -5494.36zm3256.63 273.72c-67.95,-119.73 -25.98,-271.9 93.75,-339.85 119.73,-67.95 271.9,-25.98 339.85,93.75l3144.31 5542.64c67.95,119.73 25.98,271.9 -93.75,339.85 -119.73,67.95 -271.9,25.98 -339.85,-93.75l-3144.31 -5542.64zm1866.49 -2683.69c-137.52,-0.54 -248.58,-112.48 -248.04,-250 0.54,-137.52 112.48,-248.58 250,-248.04l6372.22 48.28c137.52,0.54 248.58,112.48 248.04,250 -0.54,137.52 -112.48,248.58 -250,248.04l-6372.22 -48.28zm-1392.06 -2957.41c-69.57,118.65 -222.17,158.43 -340.82,88.86 -118.65,-69.57 -158.43,-222.17 -88.86,-340.82l3227.89 -5494.36c69.57,-118.65 222.17,-158.43 340.82,-88.86 118.65,69.57 158.43,222.17 88.86,340.82l-3227.89 5494.36zm-1615.53 302.4c0,138.07 -111.93,250 -250,250 -138.07,0 -250,-111.93 -250,-250l0 -4656.67c0,-138.07 111.93,-250 250,-250 138.07,0 250,111.93 250,250l0 4656.67zm-2188.24 974.82c119.19,68.49 160.29,220.65 91.8,339.84 -68.49,119.19 -220.65,160.29 -339.84,91.8l-4032.79 -2328.33c-119.19,-68.49 -160.29,-220.65 -91.8,-339.84 68.49,-119.19 220.65,-160.29 339.84,-91.8l4032.79 2328.33zm-249.02 2381.29c119.19,-69.03 271.79,-28.37 340.82,90.82 69.03,119.19 28.37,271.79 -90.82,340.82l-4032.79 2328.34c-119.19,69.03 -271.79,28.37 -340.82,-90.82 -69.03,-119.19 -28.37,-271.79 90.82,-340.82l4032.79 -2328.34zm1938.23 1406.47c0,-137.52 111.5,-249.02 249.02,-249.02 137.52,0 249.02,111.5 249.02,249.02l0.01 4656.67c0,137.52 -111.5,249.02 -249.02,249.02 -137.52,0 -249.02,-111.5 -249.02,-249.02l-0.01 -4656.67zm2187.26 -974.82c-119.19,-68.49 -160.29,-220.65 -91.8,-339.84 68.49,-119.19 220.65,-160.29 339.84,-91.8l4032.8 2328.33c119.19,68.49 160.29,220.65 91.8,339.84 -68.49,119.19 -220.65,160.29 -339.84,91.8l-4032.8 -2328.33zm249.03 -2381.29c-119.19,69.03 -271.79,28.37 -340.82,-90.82 -69.03,-119.19 -28.37,-271.79 90.82,-340.82l4032.79 -2328.34c119.19,-69.03 271.79,-28.37 340.82,90.82 69.03,119.19 28.37,271.79 -90.82,340.82l-4032.79 2328.34zm15663.38 17342.19c114.33,-76.58 269.12,-45.97 345.7,68.36 76.58,114.33 45.97,269.12 -68.36,345.7 -872.06,586.56 -1949.6,1089.99 -3077.46,1530.19 -1121.47,437.71 -2292.02,813.14 -3358.4,1145.59 -131.59,40.99 -271.51,-32.47 -312.5,-164.06 -40.99,-131.59 32.47,-271.51 164.06,-312.5 1058.39,-329.96 2219.31,-702.24 3325.2,-1133.87 1099.47,-429.12 2145.29,-916.79 2981.76,-1479.41zm-28389.58 2870.69c160.99,-58.99 319.74,-121.94 477.26,-189.65l-198.2 -459.04c-149.17,64.11 -299.49,123.67 -451.94,179.53l172.88 469.16zm-5936.25 1148.35c165.94,-18.93 331.85,-38.18 497.7,-57.84l-58.96 -496.52c-165.13,19.71 -330.39,38.75 -495.62,57.6l56.88 496.76zm1991.49 -251.72c165.86,-23.77 332.43,-48.23 497.8,-75.08l-78.36 -493.82c-162.24,27.58 -327.99,50.68 -491.02,74.04l71.58 494.86zm1986.63 -348.75c164.98,-35.57 329.44,-72.91 493.48,-112.61l-117.86 -485.9c-160.07,38.66 -320.47,75.12 -481.44,109.83l105.82 488.68zm34028.46 -3234.35c-79.28,-112.18 -52.6,-267.4 59.58,-346.68 112.18,-79.28 267.4,-52.6 346.68,59.58 406.58,574.5 891.07,1037.32 1388.58,1411.76 501.02,377.09 1015.21,664.6 1477.2,886.46 124.04,59.32 176.51,207.99 117.19,332.03 -59.32,124.04 -207.99,176.51 -332.03,117.19 -487.47,-234.1 -1030.59,-537.89 -1561.18,-937.24 -534.09,-401.98 -1055.64,-900.84 -1496.02,-1523.1zm5613.78 3380.04c-133.21,-34.51 -213.22,-170.5 -178.71,-303.71 34.51,-133.21 170.5,-213.22 303.71,-178.71 571.1,148.41 1137.12,262.25 1679.47,346.61 605.1,94.13 1183.66,151.93 1708.84,180.4 137.52,7.01 243.33,124.2 236.32,261.72 -7.01,137.52 -124.2,243.33 -261.72,236.32 -537.72,-29.16 -1133.1,-88.8 -1759.62,-186.26 -560.03,-87.11 -1142.71,-204.19 -1728.29,-356.37zm-10776.57 7341.29c-127.82,-51.23 -189.91,-196.4 -138.68,-324.22 51.23,-127.82 196.4,-189.91 324.22,-138.68 1142.62,457.06 2345.81,790.43 3569.57,1045.65 1225.98,255.68 2476.15,433.24 3708.17,578.18 136.99,15.64 235.37,139.38 219.73,276.37 -15.64,136.99 -139.38,235.37 -276.37,219.73 -1241.79,-146.09 -2505.21,-325.75 -3753.09,-586 -1250.06,-260.71 -2481.09,-602.04 -3653.55,-1071.03zm-11322.47 -2273.56c114.33,-76.58 269.12,-45.97 345.7,68.36 76.58,114.33 45.97,269.12 -68.36,345.7 -200.02,133.83 -405.1,259.83 -614.14,378.36 -214.07,121.37 -436.22,236.88 -664.86,346.68 -124.04,59.32 -272.71,6.85 -332.03,-117.19 -59.32,-124.04 -6.85,-272.71 117.19,-332.03 212.74,-102.17 424.27,-212.38 633.6,-331.06 200.29,-113.56 395,-233.11 582.9,-358.82zm-3683.24 1576.38c133.21,-34.51 269.2,45.5 303.71,178.71 34.51,133.21 -45.5,269.2 -178.71,303.71 -585.58,152.18 -1168.26,269.26 -1728.29,356.37 -626.52,97.46 -1221.9,157.1 -1759.62,186.26 -137.52,7.01 -254.71,-98.8 -261.72,-236.32 -7.01,-137.52 98.8,-254.71 236.32,-261.72 525.18,-28.47 1103.74,-86.27 1708.84,-180.4 542.35,-84.36 1108.37,-198.2 1679.47,-346.61zm12002.4 1339.36c-208.83,-69.89 -321.46,-295.86 -251.57,-504.69 69.89,-208.83 295.86,-321.46 504.69,-251.57l3373.43 1137.72c208.83,69.89 321.46,295.86 251.57,504.69 -69.89,208.83 -295.86,321.46 -504.69,251.57l-3373.43 -1137.72zm3413.42 -17870.56c-173.45,-135.48 -204.23,-385.92 -68.75,-559.37 135.48,-173.45 385.92,-204.23 559.37,-68.75 687.44,537.06 1358.28,1091.6 1963.6,1756.55 616.24,676.93 1163.36,1464.33 1589.54,2455.13 405.96,943.76 358.95,1789.72 -10.96,2551.25 -353.43,727.63 -1002.09,1359.48 -1826.63,1914.07 -882.75,593.75 -1969.79,1101.9 -3106.18,1545.43 -1126.07,439.51 -2299.54,815.89 -3368.36,1149.1 -148.91,46.42 -183.37,56.66 -500.23,154.94 -1237.13,383.71 -2284.76,708.66 -2843.31,998.95 -586.93,305.02 -957.32,619.73 -1158.5,932.26 -197.78,307.24 -225.83,619.71 -136.65,919.86 100.05,336.74 342.11,671.26 663.1,979.38 627.17,602.01 1529.74,1079.88 2298.43,1294.43 212.28,58.68 336.81,278.35 278.13,490.63 -58.68,212.28 -278.35,336.81 -490.63,278.13 -880.99,-245.9 -1917.08,-795.19 -2639.05,-1488.19 -414.6,-397.97 -732.93,-849.21 -875.6,-1329.38 -153.54,-516.77 -106.69,-1052.48 230.39,-1576.12 274.66,-426.67 744.26,-837.57 1461.62,-1210.38 613.14,-318.66 1697.36,-654.96 2977.69,-1052.07l497.11 -154.94c1055.96,-329.2 2213.95,-700.52 3315.24,-1130.36 1090.95,-425.8 2127.25,-908.73 2953.04,-1464.17 712.67,-479.34 1265.57,-1009.51 1551.63,-1598.45 269.59,-555 300.1,-1180.25 -4.66,-1888.75 -387.74,-901.43 -885.36,-1617.64 -1445.78,-2233.25 -571.33,-627.6 -1209.17,-1154.66 -1863.6,-1665.93zm-23159.1 9494.2c-214.87,50.05 -429.64,-83.56 -479.69,-298.43 -50.05,-214.87 83.56,-429.64 298.43,-479.69 3983.05,-938.12 7746.21,-2155.64 11316.92,-3828.08 3567.8,-1671.06 6950.29,-3798.88 10176.98,-6559.46 651.87,-557.71 1454.22,-830.34 2253.43,-819.89 800.32,10.45 1595.71,303.77 2232.36,877.88 3356.34,3026.36 6728.07,5368.49 10132.41,7128.01 3399.43,1756.98 6835.44,2934.74 10324.56,3634.36 216.6,43.15 357.21,253.72 314.06,470.32 -43.15,216.6 -253.72,357.21 -470.32,314.06 -3557.21,-713.27 -7062.73,-1915.29 -10533.92,-3709.36 -3466.3,-1791.54 -6894.43,-4171.82 -10301.17,-7243.63 -489.43,-441.35 -1097.62,-666.8 -1707.36,-674.76 -610.79,-7.98 -1225.02,201.26 -1725.29,629.27 -3281.98,2807.89 -6724.88,4973.32 -10358.24,6675.08 -3630.43,1700.41 -7444.29,2935.41 -11473.16,3884.32z"/></g><text x="0" y="60015" fill="#000000" font-size="5px" font-weight="bold" font-family="'Helvetica Neue', Helvetica, Arial-Unicode, Arial, Sans-serif">Created by Olena Panasovska</text><text x="0" y="60020" fill="#000000" font-size="5px" font-weight="bold" font-family="'Helvetica Neue', Helvetica, Arial-Unicode, Arial, Sans-serif">from the Noun Project</text></svg>