<svg xmlns="http://www.w3.org/2000/svg" xmlns:xlink="http://www.w3.org/1999/xlink" version="1.1" x="0px" y="0px" viewBox="0 0 100 125" enable-background="new 0 0 100 100" xml:space="preserve"><path d="M94.993,38.698c-0.1-1.49-0.645-2.828-1.501-4.027c-2.707-3.793-6.534-5.784-10.997-6.68  c-1.133-0.228-2.305-0.271-3.458-0.398c-0.018-0.072-0.034-0.145-0.05-0.217c0.677-0.174,1.351-0.471,2.036-0.495  c1.28-0.046,2.322-0.484,3.189-1.413c0.739-0.792,1.679-1.153,2.755-1.155c1.138,0,2.115-0.398,2.874-1.238  c0.827-0.919,1.843-1.318,3.059-1.331c0.389-0.005,0.775-0.142,1.274-0.239c-1.477-1.728-3.254-2.458-5.24-2.703  c-4.491-0.554-8.505,0.762-12.166,3.284c-0.953,0.657-1.804,1.465-2.731,2.229c-0.172-1.208-0.243-2.365-0.512-3.474  c-1.137-4.689-3.413-8.633-7.676-11.171c-1.413-0.841-2.959-1.275-4.81-0.949c0.298,0.391,0.474,0.726,0.741,0.951  c0.969,0.813,1.407,1.848,1.422,3.093c0.013,1.137,0.454,2.089,1.302,2.845c0.788,0.707,1.223,1.594,1.228,2.64  c0.004,1.34,0.528,2.386,1.475,3.318c0.468,0.461,0.742,1.12,1.104,1.689c-0.07,0.052-0.142,0.104-0.212,0.156  c-0.186-0.148-0.376-0.293-0.56-0.447c-3.418-2.876-7.358-4.389-11.826-4.431c-2.456-0.023-4.771,0.516-6.694,2.178  c-0.303,0.262-0.549,0.588-0.983,1.06c0.722,0.057,1.184,0.121,1.646,0.124c1.021,0.009,1.936,0.306,2.647,1.042  c0.88,0.91,1.928,1.286,3.177,1.224c0.964-0.047,1.87,0.237,2.539,0.922c0.983,1.006,2.125,1.398,3.511,1.36  c0.923-0.026,1.782,0.284,2.458,1.008c-0.093,0.068-0.128,0.116-0.171,0.123c-0.171,0.029-0.346,0.052-0.52,0.064  c-3.592,0.244-6.828,1.467-9.705,3.607c-2.316,1.722-4.18,3.817-4.876,6.714c-0.185,0.769-0.149,1.59-0.214,2.388  c0.09,0.028,0.181,0.057,0.272,0.085c0.335-0.286,0.699-0.546,1.002-0.864c0.709-0.74,1.568-1.21,2.579-1.213  c1.344-0.004,2.427-0.472,3.317-1.458c0.677-0.749,1.562-1.096,2.544-1.105c1.282-0.011,2.324-0.455,3.179-1.411  c0.667-0.746,1.549-1.135,2.532-1.135c1.345,0,2.371-0.528,3.312-1.47c1.017-1.017,2.249-1.476,3.682-0.765  c0.335,0.166,0.688,0.308,1.049,0.405c0.978,0.26,1.504,0.967,1.793,1.854c0.167,0.514,0.229,1.074,0.262,1.618  c0.059,1.002,0.432,1.86,1.155,2.527c0.922,0.849,1.394,1.854,1.394,3.11c0.001,1.078,0.425,2.008,1.221,2.728  c0.871,0.788,1.309,1.743,1.32,2.909c0.01,1.16,0.442,2.134,1.29,2.932c0.822,0.773,1.249,1.724,1.276,2.863  c0.01,0.428,0.115,0.853,0.211,1.502c0.458-0.473,0.775-0.747,1.029-1.07c1.118-1.424,1.656-3.088,1.77-4.862  c0.328-5.146-1.438-9.558-4.826-13.374c-0.205-0.229-0.408-0.461-0.7-0.791c1.175-0.025,2.048,0.312,2.729,1.015  c0.883,0.908,1.931,1.286,3.173,1.238c1.08-0.042,2.02,0.335,2.776,1.101c0.825,0.834,1.804,1.226,2.972,1.17  c1.135-0.054,2.099,0.325,2.927,1.107c0.31,0.293,0.695,0.508,1.199,0.868C94.98,39.327,95.015,39.011,94.993,38.698z   M21.176,55.924c-0.051-1.008,0.331-1.88,1.018-2.58c0.898-0.914,1.322-1.966,1.25-3.247c-0.056-0.999,0.292-1.897,0.988-2.593  c0.95-0.951,1.303-2.05,1.302-3.381c0-1.438,0.546-2.634,2.062-3.144c0.354-0.12,0.705-0.269,1.028-0.456  c0.875-0.507,1.747-0.379,2.579,0.043c0.481,0.245,0.92,0.598,1.328,0.959c0.751,0.667,1.622,1.009,2.605,0.969  c1.252-0.052,2.295,0.327,3.184,1.214c0.763,0.762,1.72,1.121,2.792,1.066c1.173-0.059,2.159,0.308,2.991,1.124  c0.828,0.812,1.822,1.196,2.986,1.16c1.128-0.034,2.102,0.336,2.927,1.124c0.309,0.294,0.685,0.52,1.212,0.912  c-0.012-0.658,0.02-1.076-0.031-1.484c-0.216-1.798-1.012-3.355-2.186-4.69c-3.406-3.871-7.774-5.742-12.869-6.043  c-0.307-0.018-0.614-0.038-1.053-0.064c0.812-0.849,1.668-1.227,2.647-1.213c1.267,0.017,2.274-0.455,3.12-1.369  c0.733-0.793,1.665-1.19,2.741-1.185c1.173,0.006,2.142-0.409,2.929-1.274c0.764-0.839,1.713-1.253,2.852-1.286  c0.427-0.012,0.852-0.133,1.462-0.234c-0.368-0.39-0.57-0.637-0.806-0.844c-1.124-0.982-2.456-1.543-3.909-1.786  c-4.597-0.768-8.71,0.53-12.5,3.052c-0.962,0.641-1.821,1.438-2.728,2.164c-0.063-0.04-0.126-0.078-0.188-0.117  c0.356-0.603,0.623-1.289,1.089-1.79c0.874-0.939,1.301-1.985,1.257-3.256c-0.038-1.083,0.372-2.002,1.131-2.764  c0.805-0.806,1.215-1.777,1.156-2.908c-0.065-1.235,0.372-2.235,1.222-3.105c0.271-0.277,0.448-0.647,0.731-1.069  c-2.266-0.178-4.039,0.563-5.617,1.794c-3.567,2.785-5.474,6.552-6.28,10.924c-0.21,1.14-0.24,2.312-0.356,3.508  c-0.976-0.733-1.843-1.5-2.817-2.094c-4.119-2.513-8.518-3.692-13.327-2.472c-1.595,0.404-2.993,1.19-4.071,2.729  c0.487,0.065,0.848,0.179,1.196,0.148c1.261-0.11,2.301,0.312,3.192,1.183c0.814,0.794,1.799,1.154,2.932,1.091  c1.058-0.059,1.993,0.262,2.735,0.999c0.951,0.945,2.061,1.313,3.389,1.303c0.657-0.004,1.316,0.267,1.975,0.414  c-0.014,0.087-0.026,0.173-0.039,0.26c-0.237,0.027-0.474,0.059-0.711,0.08c-4.451,0.383-8.307,2.101-11.496,5.229  c-1.753,1.72-3.01,3.739-3.194,6.274c-0.028,0.399,0.028,0.804,0.055,1.446c0.551-0.472,0.923-0.753,1.252-1.078  c0.728-0.717,1.584-1.152,2.609-1.135c1.266,0.021,2.272-0.454,3.111-1.381c0.648-0.716,1.49-1.154,2.447-1.144  c1.406,0.017,2.491-0.513,3.444-1.52c0.635-0.671,1.461-1.06,2.451-1.026c-0.017,0.113-0.009,0.172-0.034,0.208  c-0.102,0.142-0.208,0.281-0.322,0.413c-2.367,2.712-3.791,5.866-4.312,9.414c-0.42,2.856-0.257,5.655,1.3,8.195  c0.413,0.674,1.019,1.23,1.537,1.84c0.084-0.044,0.168-0.088,0.253-0.132c0.035-0.439,0.108-0.88,0.098-1.319  c-0.022-1.024,0.253-1.963,0.966-2.681C20.809,58.348,21.244,57.251,21.176,55.924z M51.702,83.301h-0.014  c-0.525-2.624-1.162-5.212-1.987-7.749c-0.688-2.551-1.7-4.976-2.575-7.438c-1.05-2.4-2.012-4.824-3.225-7.138  c-2.3-4.674-4.937-9.163-7.912-13.413c-1.101-1.575-2.25-3.1-3.425-4.612c-0.225-0.138-0.45-0.3-0.662-0.488  c-0.288-0.263-0.675-0.587-1.062-0.788c-0.312-0.15-0.588-0.237-0.825-0.237c-0.188,0-0.375,0.062-0.563,0.163  c-0.375,0.225-0.799,0.413-1.25,0.562c-0.149,0.05-0.287,0.112-0.425,0.188c1.738,2.375,3.375,4.85,4.875,7.375  c2.575,4.274,4.8,8.737,6.663,13.325c1,2.275,1.738,4.638,2.563,6.95c0.65,2.387,1.449,4.714,1.912,7.126  c0.513,2.062,0.9,4.137,1.188,6.224c-12.737,0.575-22.95,3.838-25.45,8.039h58.925C75.851,87.039,65.027,83.701,51.702,83.301z   M50.906,75.226c0.734,2.26,1.32,4.584,1.809,6.879c0.244,0.01,0.488,0.022,0.731,0.034l0.998-7.59  c0.557-2.788,0.994-5.617,1.647-8.384c0.693-2.757,1.304-5.547,2.212-8.234c0.771-2.742,1.831-5.366,2.824-8.024l1.736-3.869  c0.591-1.284,1.295-2.502,1.937-3.761c0.663-1.244,1.447-2.41,2.163-3.622c0.803-1.144,1.566-2.331,2.44-3.415l1.312-1.628  l0.909-1.001c-0.402-0.11-0.817-0.27-1.236-0.478c-0.287-0.143-0.552-0.212-0.806-0.212c-0.459,0-0.941,0.25-1.435,0.743  c-0.864,0.864-1.802,1.4-2.827,1.654c-0.543,0.699-1.074,1.406-1.613,2.109c-0.822,1.252-1.714,2.471-2.479,3.759  c-0.739,1.298-1.545,2.57-2.231,3.896l-2.014,4.005c-1.17,2.739-2.405,5.463-3.34,8.286c-1.076,2.784-1.841,5.649-2.69,8.498  c-0.564,1.992-1.019,4.007-1.482,6.022C49.993,72.301,50.507,73.739,50.906,75.226z"/></svg>