<svg xmlns="http://www.w3.org/2000/svg" xmlns:vectornator="http://vectornator.io" xmlns:xlink="http://www.w3.org/1999/xlink" stroke-miterlimit="10" style="" version="1.1" viewBox="0 0 1024 1280" xml:space="preserve" x="0px" y="0px" fill-rule="nonzero" clip-rule="evenodd" stroke-linecap="round" stroke-linejoin="round"><g vectornator:layerName="Layer 1"><path d="M683.312 140.214C677.979 141.548 673.312 143.214 669.312 145.214C665.312 147.214 661.479 149.881 657.812 153.214C654.146 156.548 650.979 157.881 648.312 157.214C645.646 156.548 641.479 156.548 635.812 157.214C630.146 157.881 625.312 159.714 621.312 162.714C617.312 165.714 614.312 169.214 612.312 173.214C610.312 177.214 609.146 181.381 608.812 185.714C608.479 190.048 609.146 194.381 610.812 198.714C612.479 203.048 614.646 206.714 617.312 209.714C619.979 212.714 622.979 214.881 626.312 216.214C629.646 217.548 631.312 247.381 631.312 305.714C631.312 334.881 631.312 364.048 631.312 393.214C628.312 392.881 625.312 392.548 622.312 392.214C616.312 391.548 610.812 390.381 605.812 388.714C600.812 387.048 594.646 383.381 587.312 377.714C579.979 372.048 573.312 364.381 567.312 354.714C561.312 345.048 555.979 333.214 551.312 319.214C546.646 305.214 542.979 295.381 540.312 289.714C537.646 284.048 533.479 277.714 527.812 270.714C522.146 263.714 516.646 258.214 511.312 254.214C505.979 250.214 500.479 246.881 494.812 244.214C489.146 241.548 483.646 239.548 478.312 238.214C472.979 236.881 466.646 236.048 459.312 235.714C451.979 235.381 443.812 236.214 434.812 238.214C425.812 240.214 416.979 243.714 408.312 248.714C399.646 253.714 391.812 260.214 384.812 268.214C377.812 276.214 370.646 288.714 363.312 305.714C355.979 322.714 349.312 335.381 343.312 343.714C337.312 352.048 330.812 359.048 323.812 364.714C316.812 370.381 306.979 376.881 294.312 384.214C281.646 391.548 272.312 398.048 266.312 403.714C260.312 409.381 256.146 413.881 253.812 417.214C251.479 420.548 248.479 426.214 244.812 434.214C241.146 442.214 235.979 459.881 229.312 487.214C222.646 514.548 218.312 530.048 216.312 533.714C214.312 537.381 210.646 541.214 205.312 545.214C199.979 549.214 195.479 553.548 191.812 558.214C188.146 562.881 185.812 567.048 184.812 570.714C183.812 574.381 183.312 581.881 183.312 593.214C183.312 604.548 182.812 612.048 181.812 615.714C180.812 619.381 180.312 622.048 180.312 623.714C180.312 624.548 180.312 625.381 180.312 626.214C184.146 625.714 187.979 625.214 191.812 624.714C199.479 623.714 205.979 622.048 211.312 619.714C216.646 617.381 221.479 614.381 225.812 610.714C230.146 607.048 233.812 601.881 236.812 595.214C239.812 588.548 241.312 582.714 241.312 577.714C241.312 572.714 240.479 567.214 238.812 561.214C237.146 555.214 237.646 549.214 240.312 543.214C241.646 540.214 242.979 537.214 244.312 534.214C246.146 538.381 247.979 542.548 249.812 546.714C253.479 555.048 256.979 564.548 260.312 575.214C263.646 585.881 265.812 594.214 266.812 600.214C267.812 606.214 268.146 613.881 267.812 623.214C267.479 632.548 266.312 640.381 264.312 646.714C262.312 653.048 258.979 660.881 254.312 670.214C249.646 679.548 247.146 688.381 246.812 696.714C246.479 705.048 246.979 711.381 248.312 715.714C249.646 720.048 253.979 728.714 261.312 741.714C268.646 754.714 272.312 773.214 272.312 797.214C272.312 821.214 273.146 835.548 274.812 840.214C276.479 844.881 279.146 849.214 282.812 853.214C284.646 855.214 286.479 857.214 288.312 859.214C279.812 859.214 271.312 859.214 262.812 859.214C245.812 859.214 235.979 860.548 233.312 863.214C230.646 865.881 229.312 868.881 229.312 872.214C229.312 875.548 230.312 878.381 232.312 880.714C234.312 883.048 325.646 884.381 506.312 884.714C686.979 885.048 778.812 884.048 781.812 881.714C784.812 879.381 786.312 876.381 786.312 872.714C786.312 869.048 785.812 866.381 784.812 864.714C783.812 863.048 782.312 861.714 780.312 860.714C778.312 859.714 757.812 859.214 718.812 859.214C679.812 859.214 659.146 857.548 656.812 854.214C654.479 850.881 650.312 848.048 644.312 845.714C638.312 843.381 634.312 841.214 632.312 839.214C630.312 837.214 628.979 835.214 628.312 833.214C627.646 831.214 627.312 813.548 627.312 780.214C627.312 746.881 629.812 722.714 634.812 707.714C639.812 692.714 643.812 677.048 646.812 660.714C649.812 644.381 652.479 633.548 654.812 628.214C657.146 622.881 662.312 615.714 670.312 606.714C678.312 597.714 687.312 590.714 697.312 585.714C707.312 580.714 716.979 574.048 726.312 565.714C735.646 557.381 743.312 548.714 749.312 539.714C755.312 530.714 760.146 521.548 763.812 512.214C767.479 502.881 770.479 491.714 772.812 478.714C775.146 465.714 776.312 449.381 776.312 429.714C776.313 410.048 775.312 394.048 773.312 381.714C771.313 369.381 766.979 352.714 760.312 331.714C753.646 310.714 750.479 297.381 750.812 291.714C751.146 286.048 751.812 282.381 752.812 280.714C753.812 279.048 761.979 274.714 777.312 267.714C792.646 260.714 802.812 257.881 807.812 259.214C812.813 260.548 817.646 261.214 822.312 261.214C826.979 261.214 831.479 260.381 835.812 258.714C840.146 257.048 844.646 253.881 849.312 249.214C853.979 244.548 857.312 239.881 859.312 235.214C861.312 230.548 862.479 225.881 862.812 221.214C863.146 216.548 862.812 211.714 861.812 206.714C860.813 201.714 859.146 197.048 856.812 192.714C854.479 188.381 851.979 184.714 849.312 181.714C846.646 178.714 843.146 175.714 838.812 172.714C834.479 169.714 828.146 167.381 819.812 165.714C811.479 164.048 798.146 163.214 779.812 163.214C761.479 163.214 750.146 161.048 745.812 156.714C741.479 152.381 736.812 148.881 731.812 146.214C726.812 143.548 721.479 141.548 715.812 140.214C710.146 138.881 704.646 138.214 699.312 138.214C693.979 138.214 688.646 138.881 683.312 140.214ZM703.812 165.214C710.812 165.881 716.312 167.381 720.312 169.714C724.312 172.048 728.312 175.381 732.312 179.714C736.312 184.048 739.312 186.714 741.312 187.714C743.312 188.714 756.479 189.381 780.812 189.714C805.146 190.048 818.646 190.881 821.312 192.214C823.979 193.548 825.312 194.548 825.312 195.214C825.312 195.881 824.312 196.381 822.312 196.714C820.312 197.048 818.646 197.881 817.312 199.214C815.979 200.548 815.479 203.048 815.812 206.714C816.146 210.381 817.146 212.881 818.812 214.214C820.479 215.548 823.979 216.214 829.312 216.214C831.979 216.214 834.646 216.214 837.312 216.214C836.979 218.048 836.646 219.881 836.312 221.714C835.646 225.381 833.812 228.548 830.812 231.214C827.812 233.881 824.146 234.881 819.812 234.214C815.479 233.548 810.812 230.548 805.812 225.214C800.812 219.881 796.312 217.214 792.312 217.214C788.312 217.214 785.146 218.714 782.812 221.714C780.479 224.714 779.313 228.214 779.312 232.214C779.312 236.214 775.479 240.214 767.812 244.214C760.146 248.214 754.146 250.881 749.812 252.214C745.479 253.548 739.646 254.214 732.312 254.214C724.979 254.214 719.646 253.714 716.312 252.714C712.979 251.714 708.812 249.048 703.812 244.714C698.812 240.381 694.812 238.214 691.812 238.214C688.812 238.214 685.979 239.381 683.312 241.714C680.646 244.048 679.312 247.214 679.312 251.214C679.312 255.214 680.812 259.048 683.812 262.714C686.812 266.381 691.479 269.881 697.812 273.214C704.146 276.548 710.312 278.548 716.312 279.214C719.312 279.548 722.312 279.881 725.312 280.214C724.979 283.381 724.646 286.548 724.312 289.714C723.646 296.048 723.979 302.048 725.312 307.714C725.979 310.548 726.646 313.381 727.312 316.214C724.812 314.214 722.312 312.214 719.812 310.214C714.812 306.214 710.479 303.881 706.812 303.214C703.146 302.548 699.979 303.048 697.312 304.714C694.646 306.381 692.979 309.214 692.312 313.214C691.646 317.214 691.646 320.048 692.312 321.714C692.979 323.381 695.479 326.048 699.812 329.714C704.146 333.381 711.646 337.548 722.312 342.214C732.979 346.881 739.979 355.381 743.312 367.714C746.646 380.048 748.479 389.381 748.812 395.714C749.146 402.048 748.979 407.214 748.312 411.214C747.646 415.214 745.646 420.381 742.312 426.714C738.979 433.048 734.646 438.548 729.312 443.214C723.979 447.881 717.979 451.214 711.312 453.214C704.646 455.214 698.146 456.048 691.812 455.714C685.479 455.381 679.979 454.381 675.312 452.714C670.646 451.048 665.479 447.881 659.812 443.214C654.146 438.548 649.479 433.048 645.812 426.714C642.146 420.381 640.646 416.714 641.312 415.714C641.979 414.714 643.646 413.881 646.312 413.214C648.979 412.548 651.479 410.881 653.812 408.214C656.146 405.548 657.312 396.381 657.312 380.714C657.312 372.881 657.312 365.048 657.312 357.214C659.312 359.214 661.312 361.214 663.312 363.214C667.312 367.214 670.979 369.381 674.312 369.714C677.646 370.048 680.812 369.048 683.812 366.714C686.812 364.381 688.646 362.214 689.312 360.214C689.979 358.214 689.646 355.381 688.312 351.714C686.979 348.048 683.979 344.048 679.312 339.714C674.646 335.381 671.146 331.548 668.812 328.214C666.479 324.881 664.146 320.214 661.812 314.214C659.479 308.214 658.146 290.714 657.812 261.714C657.479 232.714 659.646 217.214 664.312 215.214C668.979 213.214 672.979 210.381 676.312 206.714C679.646 203.048 681.646 199.048 682.312 194.714C682.979 190.381 681.979 185.548 679.312 180.214C677.979 177.548 676.646 174.881 675.312 172.214C678.312 170.881 681.312 169.548 684.312 168.214C690.312 165.548 696.812 164.548 703.812 165.214ZM642.312 182.714C645.646 183.048 648.646 184.881 651.312 188.214C652.646 189.881 653.979 191.548 655.312 193.214C654.312 193.714 653.312 194.214 652.312 194.714C650.312 195.714 647.646 195.881 644.312 195.214C640.979 194.548 638.646 193.548 637.312 192.214C635.979 190.881 635.646 188.881 636.312 186.214C636.979 183.548 638.979 182.381 642.312 182.714ZM463.312 262.714C471.312 263.714 478.812 266.048 485.812 269.714C492.812 273.381 499.479 278.881 505.812 286.214C512.146 293.548 516.479 301.048 518.812 308.714C521.146 316.381 521.812 324.381 520.812 332.714C519.812 341.048 517.479 348.548 513.812 355.214C510.146 361.881 506.312 367.214 502.312 371.214C498.312 375.214 494.479 378.381 490.812 380.714C487.146 383.048 481.813 385.214 474.812 387.214C467.812 389.214 459.646 389.881 450.312 389.214C440.979 388.548 434.312 387.381 430.312 385.714C426.312 384.048 421.979 381.548 417.312 378.214C412.646 374.881 407.479 369.214 401.812 361.214C396.146 353.214 392.479 345.881 390.812 339.214C389.146 332.548 388.979 324.881 390.312 316.214C391.646 307.548 394.146 300.214 397.812 294.214C401.479 288.214 404.812 283.714 407.812 280.714C410.812 277.714 415.146 274.548 420.812 271.214C426.479 267.881 432.979 265.381 440.312 263.714C447.646 262.048 455.312 261.714 463.312 262.714ZM367.312 354.214C369.479 358.214 371.646 362.214 373.812 366.214C378.146 374.214 383.479 381.548 389.812 388.214C396.146 394.881 403.146 400.381 410.812 404.714C418.479 409.048 425.813 412.048 432.812 413.714C439.812 415.381 449.313 415.881 461.312 415.214C473.312 414.548 483.313 412.548 491.312 409.214C499.312 405.881 506.813 401.381 513.812 395.714C520.812 390.048 526.979 383.048 532.312 374.714C534.979 370.548 537.646 366.381 540.312 362.214C542.812 366.048 545.312 369.881 547.812 373.714C552.812 381.381 558.146 387.881 563.812 393.214C569.479 398.548 575.979 403.214 583.312 407.214C590.646 411.214 597.312 413.881 603.312 415.214C609.312 416.548 613.979 421.214 617.312 429.214C620.646 437.214 623.479 442.881 625.812 446.214C628.146 449.548 631.812 453.714 636.812 458.714C641.812 463.714 646.812 467.714 651.812 470.714C656.812 473.714 663.146 476.381 670.812 478.714C678.479 481.048 686.479 482.214 694.812 482.214C703.146 482.214 710.312 481.381 716.312 479.714C722.312 478.048 729.146 474.881 736.812 470.214C740.646 467.881 744.479 465.548 748.312 463.214C748.146 465.714 747.979 468.214 747.812 470.714C747.479 475.714 746.312 481.881 744.312 489.214C742.312 496.548 738.812 504.881 733.812 514.214C728.812 523.548 723.312 531.548 717.312 538.214C711.312 544.881 703.312 551.381 693.312 557.714C683.312 564.048 673.146 568.881 662.812 572.214C652.479 575.548 645.479 577.381 641.812 577.714C639.979 577.881 638.146 578.048 636.312 578.214C637.312 572.714 638.312 567.214 639.312 561.714C641.312 550.714 641.979 542.048 641.312 535.714C640.646 529.381 639.146 525.214 636.812 523.214C634.479 521.214 631.812 520.214 628.812 520.214C625.812 520.214 623.312 520.881 621.312 522.214C619.312 523.548 617.812 525.548 616.812 528.214C615.812 530.881 615.479 533.881 615.812 537.214C616.146 540.548 615.812 546.048 614.812 553.714C613.812 561.381 610.312 573.214 604.312 589.214C598.312 605.214 592.146 618.548 585.812 629.214C579.479 639.881 574.479 647.548 570.812 652.214C567.146 656.881 563.479 660.714 559.812 663.714C557.979 665.214 556.146 666.714 554.312 668.214C554.812 665.048 555.312 661.881 555.812 658.714C556.812 652.381 556.979 644.214 556.312 634.214C555.646 624.214 551.146 606.881 542.812 582.214C534.479 557.548 529.812 540.381 528.812 530.714C527.812 521.048 527.979 513.048 529.312 506.714C530.646 500.381 532.479 495.214 534.812 491.214C537.146 487.214 542.312 482.381 550.312 476.714C558.312 471.048 562.646 466.548 563.312 463.214C563.979 459.881 563.812 457.214 562.812 455.214C561.812 453.214 560.312 451.548 558.312 450.214C556.312 448.881 554.146 448.048 551.812 447.714C549.479 447.381 545.979 448.214 541.312 450.214C536.646 452.214 531.479 455.881 525.812 461.214C520.146 466.548 515.646 472.214 512.312 478.214C508.979 484.214 506.479 490.381 504.812 496.714C503.146 503.048 502.146 510.548 501.812 519.214C501.479 527.881 501.812 535.381 502.812 541.714C503.812 548.048 505.812 555.714 508.812 564.714C510.312 569.214 511.812 573.714 513.312 578.214C509.146 577.881 504.979 577.548 500.812 577.214C492.479 576.548 482.813 575.048 471.812 572.714C460.812 570.381 451.979 568.048 445.312 565.714C438.646 563.381 430.312 559.381 420.312 553.714C410.312 548.048 400.979 541.048 392.312 532.714C383.646 524.381 379.146 516.548 378.812 509.214C378.479 501.881 376.979 492.714 374.312 481.714C371.646 470.714 368.979 464.048 366.312 461.714C363.646 459.381 360.646 458.214 357.312 458.214C353.979 458.214 350.979 459.548 348.312 462.214C345.646 464.881 344.312 467.548 344.312 470.214C344.312 472.881 345.646 479.548 348.312 490.214C350.979 500.881 352.479 512.048 352.812 523.714C353.146 535.381 352.812 546.048 351.812 555.714C350.812 565.381 348.979 575.548 346.312 586.214C343.646 596.881 340.479 606.381 336.812 614.714C333.146 623.048 329.812 629.548 326.812 634.214C323.812 638.881 318.312 645.548 310.312 654.214C302.312 662.881 296.146 668.881 291.812 672.214C287.479 675.548 283.979 678.881 281.312 682.214C278.646 685.548 276.479 689.214 274.812 693.214C273.979 695.214 273.146 697.214 272.312 699.214C272.646 697.214 272.979 695.214 273.312 693.214C273.979 689.214 276.146 684.048 279.812 677.714C283.479 671.381 286.312 665.214 288.312 659.214C290.312 653.214 291.812 647.548 292.812 642.214C293.812 636.881 294.312 629.548 294.312 620.214C294.312 610.881 293.146 600.548 290.812 589.214C288.479 577.881 283.146 560.381 274.812 536.714C266.479 513.048 261.979 497.048 261.312 488.714C260.646 480.381 260.812 473.214 261.812 467.214C262.812 461.214 264.979 454.381 268.312 446.714C271.646 439.048 275.812 432.381 280.812 426.714C285.812 421.048 297.479 412.548 315.812 401.214C334.146 389.881 345.479 382.048 349.812 377.714C354.146 373.381 358.146 368.381 361.812 362.714C363.646 359.881 365.479 357.048 367.312 354.214ZM286.312 460.214C283.646 462.881 282.312 472.548 282.312 489.214C282.312 505.881 283.479 515.548 285.812 518.214C288.146 520.881 290.979 522.214 294.312 522.214C297.646 522.214 300.312 521.548 302.312 520.214C304.312 518.881 305.812 517.214 306.812 515.214C307.812 513.214 308.312 504.714 308.312 489.714C308.312 474.714 307.479 465.714 305.812 462.714C304.146 459.714 301.146 457.881 296.812 457.214C292.479 456.548 288.979 457.548 286.312 460.214ZM421.812 494.214C418.812 496.881 417.312 500.214 417.312 504.214C417.312 508.214 418.646 511.548 421.312 514.214C423.979 516.881 427.146 518.214 430.812 518.214C434.479 518.214 437.646 517.048 440.312 514.714C442.979 512.381 444.479 509.381 444.812 505.714C445.146 502.048 444.146 498.714 441.812 495.714C439.479 492.714 436.312 491.048 432.312 490.714C428.312 490.381 424.812 491.548 421.812 494.214ZM214.312 572.214C214.479 573.881 214.646 575.548 214.812 577.214C215.146 580.548 214.313 583.714 212.312 586.714C211.312 588.214 210.313 589.714 209.312 591.214C209.479 588.881 209.646 586.548 209.812 584.214C210.146 579.548 210.979 576.381 212.312 574.714C212.979 573.881 213.646 573.048 214.312 572.214ZM374.312 578.214C377.146 580.214 379.979 582.214 382.812 584.214C388.479 588.214 391.146 591.214 390.812 593.214C390.479 595.214 388.479 600.548 384.812 609.214C381.146 617.881 373.312 632.881 361.312 654.214C349.312 675.548 342.812 689.048 341.812 694.714C340.812 700.381 340.479 705.048 340.812 708.714C340.979 710.548 341.146 712.381 341.312 714.214C340.979 714.214 340.646 714.214 340.312 714.214C339.646 714.214 337.479 711.714 333.812 706.714C330.146 701.714 327.812 695.548 326.812 688.214C325.812 680.881 328.146 674.214 333.812 668.214C339.479 662.214 345.479 653.714 351.812 642.714C358.146 631.714 363.146 620.714 366.812 609.714C370.479 598.714 372.646 590.714 373.312 585.714C373.646 583.214 373.979 580.714 374.312 578.214ZM419.312 583.214C423.979 585.048 428.646 586.881 433.312 588.714C442.646 592.381 450.646 595.048 457.312 596.714C463.979 598.381 476.646 600.214 495.312 602.214C513.979 604.214 523.479 605.548 523.812 606.214C524.146 606.881 525.146 610.381 526.812 616.714C528.479 623.048 529.479 629.214 529.812 635.214C530.146 641.214 529.146 652.048 526.812 667.714C524.479 683.381 523.146 694.881 522.812 702.214C522.479 709.548 522.812 715.548 523.812 720.214C524.812 724.881 526.979 731.048 530.312 738.714C533.646 746.381 535.312 765.048 535.312 794.714C535.312 824.381 536.146 841.214 537.812 845.214C539.479 849.214 541.479 852.548 543.812 855.214C544.979 856.548 546.146 857.881 547.312 859.214C523.312 859.214 499.312 859.214 475.312 859.214C427.312 859.214 402.312 857.548 400.312 854.214C398.312 850.881 393.979 847.881 387.312 845.214C380.646 842.548 375.979 839.714 373.312 836.714C370.646 833.714 368.979 831.048 368.312 828.714C367.646 826.381 367.312 803.881 367.312 761.214C367.312 718.548 373.812 685.381 386.812 661.714C399.812 638.048 407.979 622.048 411.312 613.714C414.646 605.381 416.813 598.214 417.812 592.214C418.312 589.214 418.813 586.214 419.312 583.214ZM636.312 604.214C636.979 604.214 637.646 604.214 638.312 604.214C638.312 604.548 638.312 604.881 638.312 605.214C638.312 605.881 637.146 607.881 634.812 611.214C632.479 614.548 630.312 618.714 628.312 623.714C626.312 628.714 624.146 638.214 621.812 652.214C619.479 666.214 615.479 682.214 609.812 700.214C604.146 718.214 601.312 745.548 601.312 782.214C601.312 818.881 601.812 838.714 602.812 841.714C603.812 844.714 606.146 848.381 609.812 852.714C611.646 854.881 613.479 857.048 615.312 859.214C611.479 859.214 607.646 859.214 603.812 859.214C596.146 859.214 591.146 857.548 588.812 854.214C586.479 850.881 582.312 848.048 576.312 845.714C570.312 843.381 566.312 840.881 564.312 838.214C562.312 835.548 561.146 827.048 560.812 812.714C560.479 798.381 560.646 790.381 561.312 788.714C561.979 787.048 566.146 781.714 573.812 772.714C581.479 763.714 587.312 755.048 591.312 746.714C595.312 738.381 597.646 732.881 598.312 730.214C598.979 727.548 599.312 720.881 599.312 710.214C599.312 699.548 598.812 688.548 597.812 677.214C596.812 665.881 599.146 656.214 604.812 648.214C610.479 640.214 615.479 631.214 619.812 621.214C624.146 611.214 627.646 605.881 630.312 605.214C632.979 604.548 634.979 604.214 636.312 604.214ZM570.312 690.214C570.812 694.881 571.312 699.548 571.812 704.214C572.812 713.548 572.812 720.381 571.812 724.714C570.812 729.048 568.812 733.548 565.812 738.214C564.312 740.548 562.812 742.881 561.312 745.214C561.146 743.714 560.979 742.214 560.812 740.714C560.479 737.714 558.646 733.381 555.312 727.714C551.979 722.048 549.979 717.381 549.312 713.714C548.646 710.048 551.979 705.214 559.312 699.214C562.979 696.214 566.646 693.214 570.312 690.214ZM301.312 700.214C303.146 704.048 304.979 707.881 306.812 711.714C310.479 719.381 315.312 726.548 321.312 733.214C327.312 739.881 331.979 745.714 335.312 750.714C338.646 755.714 340.646 771.214 341.312 797.214C341.979 823.214 343.146 838.048 344.812 841.714C346.479 845.381 349.312 849.214 353.312 853.214C355.312 855.214 357.312 857.214 359.312 859.214C354.979 859.214 350.646 859.214 346.312 859.214C337.646 859.214 332.146 857.548 329.812 854.214C327.479 850.881 322.979 847.881 316.312 845.214C309.646 842.548 305.312 839.881 303.312 837.214C301.312 834.548 299.979 818.548 299.312 789.214C298.646 759.881 297.812 739.881 296.812 729.214C295.812 718.548 296.312 711.048 298.312 706.714C299.312 704.548 300.312 702.381 301.312 700.214ZM166.812 860.714C163.812 863.048 161.979 865.881 161.312 869.214C160.646 872.548 161.312 875.881 163.312 879.214C165.312 882.548 168.479 884.548 172.812 885.214C177.146 885.881 180.646 885.381 183.312 883.714C185.979 882.048 187.812 880.048 188.812 877.714C189.812 875.381 190.146 872.881 189.812 870.214C189.479 867.548 188.312 865.048 186.312 862.714C184.312 860.381 181.312 858.881 177.312 858.214C173.312 857.548 169.812 858.381 166.812 860.714ZM832.312 860.214C829.646 862.214 827.979 865.381 827.312 869.714C826.646 874.048 827.479 877.714 829.812 880.714C832.146 883.714 835.146 885.381 838.812 885.714C842.479 886.048 845.812 885.214 848.812 883.214C851.812 881.214 853.646 878.381 854.312 874.714C854.979 871.048 853.979 867.381 851.312 863.714C848.646 860.048 845.479 858.048 841.812 857.714C838.146 857.381 834.979 858.214 832.312 860.214Z" fill="#000000" fill-rule="nonzero" opacity="1" stroke="none" vectornator:layerName="Curve 1"/></g><text x="0" y="1039" fill="#000000" font-size="5px" font-weight="bold" font-family="'Helvetica Neue', Helvetica, Arial-Unicode, Arial, Sans-serif">Created by Ubay Creative</text><text x="0" y="1044" fill="#000000" font-size="5px" font-weight="bold" font-family="'Helvetica Neue', Helvetica, Arial-Unicode, Arial, Sans-serif">from the Noun Project</text></svg>